<?xml version="1.0" standalone="no"?>
<!DOCTYPE svg PUBLIC "-//W3C//DTD SVG 20010904//EN"
 "http://www.w3.org/TR/2001/REC-SVG-20010904/DTD/svg10.dtd">
<svg version="1.0" xmlns="http://www.w3.org/2000/svg"
 width="94.000000pt" height="94.000000pt" viewBox="0 0 94.000000 94.000000"
 preserveAspectRatio="xMidYMid meet">

<g transform="translate(0.000000,94.000000) scale(0.100000,-0.100000)"
fill="#000000" stroke="none">
<path d="M550 846 c0 -7 8 -20 18 -28 22 -20 298 -111 311 -104 5 4 12 -8 14
-26 2 -18 5 13 5 70 l2 103 -175 -1 c-133 -1 -175 -5 -175 -14z"/>
<path d="M337 664 c-3 -3 -38 -9 -78 -12 -47 -5 -74 -12 -77 -20 -3 -11 0 -12
15 -4 12 7 33 8 58 2 22 -5 67 -6 101 -3 56 5 63 4 73 -16 7 -12 15 -44 18
-71 3 -28 10 -50 14 -50 13 0 11 16 -11 91 -13 42 -28 73 -40 79 -21 11 -63
13 -73 4z"/>
<path d="M550 606 c0 -2 11 -6 25 -8 13 -3 22 -1 19 3 -5 9 -44 13 -44 5z"/>
<path d="M692 593 c-11 -10 -28 -31 -38 -48 -13 -23 -9 -20 20 12 l37 42 97 4
97 3 -96 2 c-80 2 -100 -1 -117 -15z"/>
<path d="M340 309 c-13 -6 -42 -7 -63 -3 -36 6 -38 5 -28 -14 12 -23 32 -32
70 -32 28 0 61 26 61 48 0 14 -6 14 -40 1z"/>
<path d="M369 259 c-18 -14 -41 -21 -75 -21 -62 0 -39 -14 36 -22 35 -4 65 -1
83 7 26 11 27 13 12 35 -19 27 -23 27 -56 1z"/>
<path d="M525 121 c-47 -24 -57 -25 -230 -25 -99 0 -199 5 -223 11 -35 9 -42
8 -42 -3 0 -8 12 -19 26 -24 33 -13 475 -13 508 0 18 7 26 17 26 34 0 34 -8
35 -65 7z"/>
</g>
</svg>
